<svg xmlns="http://www.w3.org/2000/svg" viewBox="0 0 800 500" width="800" height="500">
  <defs>
    <marker id="arrow-blue" markerWidth="10" markerHeight="7" refX="10" refY="3.5" orient="auto">
      <polygon points="0 0, 10 3.5, 0 7" fill="#2b6cb0"/>
    </marker>
    <marker id="arrow-red" markerWidth="10" markerHeight="7" refX="10" refY="3.5" orient="auto">
      <polygon points="0 0, 10 3.5, 0 7" fill="#e53e3e"/>
    </marker>
    <marker id="arrow-green" markerWidth="10" markerHeight="7" refX="10" refY="3.5" orient="auto">
      <polygon points="0 0, 10 3.5, 0 7" fill="#48bb78"/>
    </marker>
  </defs>

  <!-- Background -->
  <rect width="800" height="500" fill="white"/>

  <!-- Title -->
  <text x="400" y="35" text-anchor="middle" font-family="Arial, sans-serif" font-size="18" font-weight="bold" fill="#1a365d">EMI/EMC Compliance Roadmap: From Design to Market</text>

  <!-- Step 1: Design for EMC -->
  <rect x="30" y="80" width="130" height="80" rx="10" fill="#1a365d"/>
  <text x="95" y="110" text-anchor="middle" font-family="Arial, sans-serif" font-size="13" font-weight="bold" fill="white">DESIGN</text>
  <text x="95" y="128" text-anchor="middle" font-family="Arial, sans-serif" font-size="10" fill="#a0c4ff">for EMC</text>
  <text x="95" y="145" text-anchor="middle" font-family="Arial, sans-serif" font-size="9" fill="#a0c4ff">4-layer PCB, filtering</text>

  <!-- Arrow 1-2 -->
  <line x1="160" y1="120" x2="190" y2="120" stroke="#2b6cb0" stroke-width="2.5" marker-end="url(#arrow-blue)"/>

  <!-- Step 2: Prototype -->
  <rect x="195" y="80" width="130" height="80" rx="10" fill="#2b6cb0"/>
  <text x="260" y="110" text-anchor="middle" font-family="Arial, sans-serif" font-size="13" font-weight="bold" fill="white">PROTOTYPE</text>
  <text x="260" y="128" text-anchor="middle" font-family="Arial, sans-serif" font-size="10" fill="#d4e5ff">Build &amp; Assemble</text>
  <text x="260" y="145" text-anchor="middle" font-family="Arial, sans-serif" font-size="9" fill="#d4e5ff">First functional board</text>

  <!-- Arrow 2-3 -->
  <line x1="325" y1="120" x2="355" y2="120" stroke="#2b6cb0" stroke-width="2.5" marker-end="url(#arrow-blue)"/>

  <!-- Step 3: Pre-Compliance -->
  <rect x="360" y="80" width="130" height="80" rx="10" fill="#ed8936"/>
  <text x="425" y="105" text-anchor="middle" font-family="Arial, sans-serif" font-size="13" font-weight="bold" fill="white">PRE-</text>
  <text x="425" y="122" text-anchor="middle" font-family="Arial, sans-serif" font-size="13" font-weight="bold" fill="white">COMPLIANCE</text>
  <text x="425" y="145" text-anchor="middle" font-family="Arial, sans-serif" font-size="9" fill="white">Spectrum analyser, probes</text>

  <!-- Arrow 3-4 down to decision -->
  <line x1="425" y1="160" x2="425" y2="200" stroke="#2b6cb0" stroke-width="2.5" marker-end="url(#arrow-blue)"/>

  <!-- Decision Diamond: Pass? -->
  <polygon points="425,205 495,245 425,285 355,245" fill="#4299e1" stroke="#1a365d" stroke-width="2"/>
  <text x="425" y="241" text-anchor="middle" font-family="Arial, sans-serif" font-size="13" font-weight="bold" fill="white">PASS?</text>

  <!-- FAIL path - loops back left -->
  <line x1="355" y1="245" x2="260" y2="245" stroke="#e53e3e" stroke-width="2.5"/>
  <text x="305" y="237" text-anchor="middle" font-family="Arial, sans-serif" font-size="11" font-weight="bold" fill="#e53e3e">FAIL</text>

  <!-- Fix/Redesign box -->
  <rect x="195" y="220" width="130" height="50" rx="8" fill="#e53e3e" opacity="0.9"/>
  <text x="260" y="242" text-anchor="middle" font-family="Arial, sans-serif" font-size="12" font-weight="bold" fill="white">FIX / REDESIGN</text>
  <text x="260" y="258" text-anchor="middle" font-family="Arial, sans-serif" font-size="9" fill="white">Layout, filtering, shielding</text>

  <!-- Arrow from Fix back up to Pre-Compliance -->
  <line x1="260" y1="220" x2="260" y2="185" stroke="#e53e3e" stroke-width="2" stroke-dasharray="5,3"/>
  <line x1="260" y1="185" x2="390" y2="185" stroke="#e53e3e" stroke-width="2" stroke-dasharray="5,3"/>
  <line x1="390" y1="185" x2="390" y2="160" stroke="#e53e3e" stroke-width="2" stroke-dasharray="5,3" marker-end="url(#arrow-red)"/>
  <text x="325" y="178" text-anchor="middle" font-family="Arial, sans-serif" font-size="9" fill="#e53e3e">Re-test</text>

  <!-- PASS path - goes right -->
  <line x1="495" y1="245" x2="540" y2="245" stroke="#48bb78" stroke-width="2.5" marker-end="url(#arrow-green)"/>
  <text x="518" y="237" text-anchor="middle" font-family="Arial, sans-serif" font-size="11" font-weight="bold" fill="#48bb78">PASS</text>

  <!-- Step 4: Full Compliance Testing -->
  <rect x="545" y="210" width="130" height="70" rx="10" fill="#2b6cb0"/>
  <text x="610" y="235" text-anchor="middle" font-family="Arial, sans-serif" font-size="12" font-weight="bold" fill="white">FULL COMPLIANCE</text>
  <text x="610" y="252" text-anchor="middle" font-family="Arial, sans-serif" font-size="12" font-weight="bold" fill="white">TESTING</text>
  <text x="610" y="270" text-anchor="middle" font-family="Arial, sans-serif" font-size="9" fill="#d4e5ff">Accredited Lab (NABL)</text>

  <!-- Arrow down to second decision -->
  <line x1="610" y1="280" x2="610" y2="310" stroke="#2b6cb0" stroke-width="2.5" marker-end="url(#arrow-blue)"/>

  <!-- Decision Diamond 2: Pass? -->
  <polygon points="610,315 670,350 610,385 550,350" fill="#4299e1" stroke="#1a365d" stroke-width="2"/>
  <text x="610" y="354" text-anchor="middle" font-family="Arial, sans-serif" font-size="12" font-weight="bold" fill="white">PASS?</text>

  <!-- FAIL path 2 - goes left back to Fix -->
  <line x1="550" y1="350" x2="260" y2="350" stroke="#e53e3e" stroke-width="2"/>
  <line x1="260" y1="350" x2="260" y2="272" stroke="#e53e3e" stroke-width="2" marker-end="url(#arrow-red)"/>
  <text x="400" y="342" text-anchor="middle" font-family="Arial, sans-serif" font-size="11" font-weight="bold" fill="#e53e3e">FAIL (costly!)</text>

  <!-- PASS path 2 - goes down -->
  <line x1="610" y1="385" x2="610" y2="410" stroke="#48bb78" stroke-width="2.5" marker-end="url(#arrow-green)"/>
  <text x="640" y="400" font-family="Arial, sans-serif" font-size="11" font-weight="bold" fill="#48bb78">PASS</text>

  <!-- Step 5: Certification -->
  <rect x="545" y="415" width="130" height="60" rx="10" fill="#48bb78"/>
  <text x="610" y="440" text-anchor="middle" font-family="Arial, sans-serif" font-size="13" font-weight="bold" fill="white">CERTIFICATION</text>
  <text x="610" y="458" text-anchor="middle" font-family="Arial, sans-serif" font-size="9" fill="white">CE / FCC / BIS mark</text>

  <!-- Arrow to Market -->
  <line x1="545" y1="445" x2="485" y2="445" stroke="#48bb78" stroke-width="2.5" marker-end="url(#arrow-green)"/>

  <!-- Step 6: Market -->
  <rect x="355" y="415" width="130" height="60" rx="10" fill="#1a365d"/>
  <text x="420" y="443" text-anchor="middle" font-family="Arial, sans-serif" font-size="15" font-weight="bold" fill="white">MARKET</text>
  <text x="420" y="462" text-anchor="middle" font-family="Arial, sans-serif" font-size="9" fill="#a0c4ff">Ship with confidence</text>

  <!-- Timeline bar at bottom -->
  <rect x="30" y="485" width="740" height="8" rx="4" fill="#e2e8f0"/>
  <rect x="30" y="485" width="185" height="8" rx="4" fill="#1a365d"/>
  <rect x="215" y="485" width="150" height="8" rx="4" fill="#ed8936"/>
  <rect x="365" y="485" width="200" height="8" rx="4" fill="#2b6cb0"/>
  <rect x="565" y="485" width="100" height="8" rx="4" fill="#48bb78"/>
  <rect x="665" y="485" width="105" height="8" rx="4" fill="#1a365d"/>

  <text x="122" y="480" text-anchor="middle" font-family="Arial, sans-serif" font-size="9" fill="#1a365d">Design: 2-4 months</text>
  <text x="290" y="480" text-anchor="middle" font-family="Arial, sans-serif" font-size="9" fill="#ed8936">Pre-test: 1-2 weeks</text>
  <text x="465" y="480" text-anchor="middle" font-family="Arial, sans-serif" font-size="9" fill="#2b6cb0">Full test: 1-3 weeks</text>
  <text x="615" y="480" text-anchor="middle" font-family="Arial, sans-serif" font-size="9" fill="#48bb78">Cert: 2-6 wks</text>
  <text x="717" y="480" text-anchor="middle" font-family="Arial, sans-serif" font-size="9" fill="#1a365d">Launch</text>
</svg>